<mxfile host="app.diagrams.net" agent="Mozilla/5.0 (Windows NT 10.0; Win64; x64) AppleWebKit/537.36 (KHTML, like Gecko) Chrome/128.0.0.0 Safari/537.36" version="24.7.14">
  <diagram name="Halaman-1" id="WiP00z7-OQJ8EnKLOVkh">
    <mxGraphModel dx="1565" dy="938" grid="1" gridSize="10" guides="1" tooltips="1" connect="1" arrows="1" fold="1" page="1" pageScale="1" pageWidth="827" pageHeight="1169" math="0" shadow="0">
      <root>
        <mxCell id="0" />
        <mxCell id="1" parent="0" />
        <mxCell id="e2IvokpkZJgBXwaijT4H-9" value="" style="group" vertex="1" connectable="0" parent="1">
          <mxGeometry x="-40" y="880" width="80" height="80" as="geometry" />
        </mxCell>
        <mxCell id="e2IvokpkZJgBXwaijT4H-7" value="" style="rhombus;whiteSpace=wrap;html=1;" vertex="1" parent="e2IvokpkZJgBXwaijT4H-9">
          <mxGeometry width="80" height="80" as="geometry" />
        </mxCell>
        <mxCell id="e2IvokpkZJgBXwaijT4H-8" value="Memesan" style="text;html=1;align=center;verticalAlign=middle;whiteSpace=wrap;rounded=0;" vertex="1" parent="e2IvokpkZJgBXwaijT4H-9">
          <mxGeometry x="10" y="25" width="60" height="30" as="geometry" />
        </mxCell>
        <mxCell id="e2IvokpkZJgBXwaijT4H-43" value="" style="group" vertex="1" connectable="0" parent="1">
          <mxGeometry x="-530" y="160" width="440" height="340" as="geometry" />
        </mxCell>
        <mxCell id="e2IvokpkZJgBXwaijT4H-3" value="" style="group" vertex="1" connectable="0" parent="e2IvokpkZJgBXwaijT4H-43">
          <mxGeometry x="130" y="280" width="120" height="60" as="geometry" />
        </mxCell>
        <mxCell id="e2IvokpkZJgBXwaijT4H-1" value="" style="rounded=0;whiteSpace=wrap;html=1;" vertex="1" parent="e2IvokpkZJgBXwaijT4H-3">
          <mxGeometry width="120" height="60" as="geometry" />
        </mxCell>
        <mxCell id="e2IvokpkZJgBXwaijT4H-2" value="Menu" style="text;html=1;align=center;verticalAlign=middle;whiteSpace=wrap;rounded=0;" vertex="1" parent="e2IvokpkZJgBXwaijT4H-3">
          <mxGeometry x="30" y="15" width="60" height="30" as="geometry" />
        </mxCell>
        <mxCell id="e2IvokpkZJgBXwaijT4H-6" value="" style="group" vertex="1" connectable="0" parent="e2IvokpkZJgBXwaijT4H-43">
          <mxGeometry y="140" width="120" height="80" as="geometry" />
        </mxCell>
        <mxCell id="e2IvokpkZJgBXwaijT4H-4" value="" style="ellipse;whiteSpace=wrap;html=1;" vertex="1" parent="e2IvokpkZJgBXwaijT4H-6">
          <mxGeometry width="120" height="80" as="geometry" />
        </mxCell>
        <mxCell id="e2IvokpkZJgBXwaijT4H-5" value="&lt;u&gt;id menu&lt;/u&gt;" style="text;html=1;align=center;verticalAlign=middle;whiteSpace=wrap;rounded=0;" vertex="1" parent="e2IvokpkZJgBXwaijT4H-6">
          <mxGeometry x="30" y="25" width="60" height="30" as="geometry" />
        </mxCell>
        <mxCell id="e2IvokpkZJgBXwaijT4H-21" value="" style="group" vertex="1" connectable="0" parent="e2IvokpkZJgBXwaijT4H-43">
          <mxGeometry x="290" y="80" width="120" height="80" as="geometry" />
        </mxCell>
        <mxCell id="e2IvokpkZJgBXwaijT4H-22" value="" style="ellipse;whiteSpace=wrap;html=1;" vertex="1" parent="e2IvokpkZJgBXwaijT4H-21">
          <mxGeometry width="120" height="80" as="geometry" />
        </mxCell>
        <mxCell id="e2IvokpkZJgBXwaijT4H-23" value="harga menu" style="text;html=1;align=center;verticalAlign=middle;whiteSpace=wrap;rounded=0;" vertex="1" parent="e2IvokpkZJgBXwaijT4H-21">
          <mxGeometry x="30" y="25" width="60" height="30" as="geometry" />
        </mxCell>
        <mxCell id="e2IvokpkZJgBXwaijT4H-24" value="" style="group" vertex="1" connectable="0" parent="e2IvokpkZJgBXwaijT4H-43">
          <mxGeometry x="180" width="120" height="80" as="geometry" />
        </mxCell>
        <mxCell id="e2IvokpkZJgBXwaijT4H-25" value="" style="ellipse;whiteSpace=wrap;html=1;" vertex="1" parent="e2IvokpkZJgBXwaijT4H-24">
          <mxGeometry width="120" height="80" as="geometry" />
        </mxCell>
        <mxCell id="e2IvokpkZJgBXwaijT4H-26" value="kategori menu" style="text;html=1;align=center;verticalAlign=middle;whiteSpace=wrap;rounded=0;" vertex="1" parent="e2IvokpkZJgBXwaijT4H-24">
          <mxGeometry x="30" y="25" width="60" height="30" as="geometry" />
        </mxCell>
        <mxCell id="e2IvokpkZJgBXwaijT4H-27" value="" style="group" vertex="1" connectable="0" parent="e2IvokpkZJgBXwaijT4H-43">
          <mxGeometry x="80" y="50" width="120" height="80" as="geometry" />
        </mxCell>
        <mxCell id="e2IvokpkZJgBXwaijT4H-28" value="" style="ellipse;whiteSpace=wrap;html=1;" vertex="1" parent="e2IvokpkZJgBXwaijT4H-27">
          <mxGeometry width="120" height="80" as="geometry" />
        </mxCell>
        <mxCell id="e2IvokpkZJgBXwaijT4H-29" value="nama menu" style="text;html=1;align=center;verticalAlign=middle;whiteSpace=wrap;rounded=0;" vertex="1" parent="e2IvokpkZJgBXwaijT4H-27">
          <mxGeometry x="30" y="25" width="60" height="30" as="geometry" />
        </mxCell>
        <mxCell id="e2IvokpkZJgBXwaijT4H-30" value="" style="group" vertex="1" connectable="0" parent="e2IvokpkZJgBXwaijT4H-43">
          <mxGeometry x="320" y="180" width="120" height="80" as="geometry" />
        </mxCell>
        <mxCell id="e2IvokpkZJgBXwaijT4H-31" value="" style="ellipse;whiteSpace=wrap;html=1;" vertex="1" parent="e2IvokpkZJgBXwaijT4H-30">
          <mxGeometry width="120" height="80" as="geometry" />
        </mxCell>
        <mxCell id="e2IvokpkZJgBXwaijT4H-32" value="tersedia menu" style="text;html=1;align=center;verticalAlign=middle;whiteSpace=wrap;rounded=0;" vertex="1" parent="e2IvokpkZJgBXwaijT4H-30">
          <mxGeometry x="30" y="25" width="60" height="30" as="geometry" />
        </mxCell>
        <mxCell id="e2IvokpkZJgBXwaijT4H-33" value="" style="endArrow=none;html=1;rounded=0;exitX=0.5;exitY=0;exitDx=0;exitDy=0;entryX=1;entryY=1;entryDx=0;entryDy=0;" edge="1" parent="e2IvokpkZJgBXwaijT4H-43" source="e2IvokpkZJgBXwaijT4H-1" target="e2IvokpkZJgBXwaijT4H-4">
          <mxGeometry width="50" height="50" relative="1" as="geometry">
            <mxPoint x="200" y="220" as="sourcePoint" />
            <mxPoint x="250" y="170" as="targetPoint" />
          </mxGeometry>
        </mxCell>
        <mxCell id="e2IvokpkZJgBXwaijT4H-34" value="" style="endArrow=none;html=1;rounded=0;exitX=0.5;exitY=0;exitDx=0;exitDy=0;entryX=0.575;entryY=0.963;entryDx=0;entryDy=0;entryPerimeter=0;" edge="1" parent="e2IvokpkZJgBXwaijT4H-43" source="e2IvokpkZJgBXwaijT4H-1" target="e2IvokpkZJgBXwaijT4H-28">
          <mxGeometry width="50" height="50" relative="1" as="geometry">
            <mxPoint x="200" y="290" as="sourcePoint" />
            <mxPoint x="112" y="218" as="targetPoint" />
          </mxGeometry>
        </mxCell>
        <mxCell id="e2IvokpkZJgBXwaijT4H-35" value="" style="endArrow=none;html=1;rounded=0;exitX=0.5;exitY=0;exitDx=0;exitDy=0;entryX=0.5;entryY=1;entryDx=0;entryDy=0;" edge="1" parent="e2IvokpkZJgBXwaijT4H-43" source="e2IvokpkZJgBXwaijT4H-1" target="e2IvokpkZJgBXwaijT4H-25">
          <mxGeometry width="50" height="50" relative="1" as="geometry">
            <mxPoint x="200" y="220" as="sourcePoint" />
            <mxPoint x="250" y="170" as="targetPoint" />
          </mxGeometry>
        </mxCell>
        <mxCell id="e2IvokpkZJgBXwaijT4H-36" value="" style="endArrow=none;html=1;rounded=0;exitX=0.5;exitY=0;exitDx=0;exitDy=0;entryX=0;entryY=1;entryDx=0;entryDy=0;" edge="1" parent="e2IvokpkZJgBXwaijT4H-43" source="e2IvokpkZJgBXwaijT4H-1" target="e2IvokpkZJgBXwaijT4H-22">
          <mxGeometry width="50" height="50" relative="1" as="geometry">
            <mxPoint x="200" y="220" as="sourcePoint" />
            <mxPoint x="250" y="170" as="targetPoint" />
          </mxGeometry>
        </mxCell>
        <mxCell id="e2IvokpkZJgBXwaijT4H-37" value="" style="endArrow=none;html=1;rounded=0;exitX=0.5;exitY=0;exitDx=0;exitDy=0;entryX=0.025;entryY=0.65;entryDx=0;entryDy=0;entryPerimeter=0;" edge="1" parent="e2IvokpkZJgBXwaijT4H-43" source="e2IvokpkZJgBXwaijT4H-1" target="e2IvokpkZJgBXwaijT4H-31">
          <mxGeometry width="50" height="50" relative="1" as="geometry">
            <mxPoint x="200" y="220" as="sourcePoint" />
            <mxPoint x="250" y="170" as="targetPoint" />
          </mxGeometry>
        </mxCell>
        <mxCell id="e2IvokpkZJgBXwaijT4H-80" value="" style="group" vertex="1" connectable="0" parent="1">
          <mxGeometry x="-180" y="420" width="410" height="340" as="geometry" />
        </mxCell>
        <mxCell id="e2IvokpkZJgBXwaijT4H-10" value="" style="group" vertex="1" connectable="0" parent="e2IvokpkZJgBXwaijT4H-80">
          <mxGeometry x="120" y="280" width="120" height="60" as="geometry" />
        </mxCell>
        <mxCell id="e2IvokpkZJgBXwaijT4H-11" value="" style="rounded=0;whiteSpace=wrap;html=1;" vertex="1" parent="e2IvokpkZJgBXwaijT4H-10">
          <mxGeometry width="120" height="60" as="geometry" />
        </mxCell>
        <mxCell id="e2IvokpkZJgBXwaijT4H-12" value="Pesanan" style="text;html=1;align=center;verticalAlign=middle;whiteSpace=wrap;rounded=0;" vertex="1" parent="e2IvokpkZJgBXwaijT4H-10">
          <mxGeometry x="30" y="15" width="60" height="30" as="geometry" />
        </mxCell>
        <mxCell id="e2IvokpkZJgBXwaijT4H-39" value="" style="group" vertex="1" connectable="0" parent="e2IvokpkZJgBXwaijT4H-80">
          <mxGeometry x="260" y="210" width="120" height="80" as="geometry" />
        </mxCell>
        <mxCell id="e2IvokpkZJgBXwaijT4H-40" value="" style="ellipse;whiteSpace=wrap;html=1;" vertex="1" parent="e2IvokpkZJgBXwaijT4H-39">
          <mxGeometry width="120" height="80" as="geometry" />
        </mxCell>
        <mxCell id="e2IvokpkZJgBXwaijT4H-41" value="jumlah pesanan" style="text;html=1;align=center;verticalAlign=middle;whiteSpace=wrap;rounded=0;" vertex="1" parent="e2IvokpkZJgBXwaijT4H-39">
          <mxGeometry x="30" y="25" width="60" height="30" as="geometry" />
        </mxCell>
        <mxCell id="e2IvokpkZJgBXwaijT4H-44" value="" style="group" vertex="1" connectable="0" parent="e2IvokpkZJgBXwaijT4H-80">
          <mxGeometry x="290" y="110" width="120" height="80" as="geometry" />
        </mxCell>
        <mxCell id="e2IvokpkZJgBXwaijT4H-45" value="" style="ellipse;whiteSpace=wrap;html=1;" vertex="1" parent="e2IvokpkZJgBXwaijT4H-44">
          <mxGeometry width="120" height="80" as="geometry" />
        </mxCell>
        <mxCell id="e2IvokpkZJgBXwaijT4H-46" value="tanggal pesanan" style="text;html=1;align=center;verticalAlign=middle;whiteSpace=wrap;rounded=0;" vertex="1" parent="e2IvokpkZJgBXwaijT4H-44">
          <mxGeometry x="30" y="25" width="60" height="30" as="geometry" />
        </mxCell>
        <mxCell id="e2IvokpkZJgBXwaijT4H-50" value="" style="group" vertex="1" connectable="0" parent="e2IvokpkZJgBXwaijT4H-80">
          <mxGeometry x="110" width="120" height="80" as="geometry" />
        </mxCell>
        <mxCell id="e2IvokpkZJgBXwaijT4H-51" value="" style="ellipse;whiteSpace=wrap;html=1;" vertex="1" parent="e2IvokpkZJgBXwaijT4H-50">
          <mxGeometry width="120" height="80" as="geometry" />
        </mxCell>
        <mxCell id="e2IvokpkZJgBXwaijT4H-52" value="id menu" style="text;html=1;align=center;verticalAlign=middle;whiteSpace=wrap;rounded=0;" vertex="1" parent="e2IvokpkZJgBXwaijT4H-50">
          <mxGeometry x="30" y="25" width="60" height="30" as="geometry" />
        </mxCell>
        <mxCell id="e2IvokpkZJgBXwaijT4H-53" value="" style="group" vertex="1" connectable="0" parent="e2IvokpkZJgBXwaijT4H-80">
          <mxGeometry x="50" y="90" width="120" height="80" as="geometry" />
        </mxCell>
        <mxCell id="e2IvokpkZJgBXwaijT4H-54" value="" style="ellipse;whiteSpace=wrap;html=1;" vertex="1" parent="e2IvokpkZJgBXwaijT4H-53">
          <mxGeometry width="120" height="80" as="geometry" />
        </mxCell>
        <mxCell id="e2IvokpkZJgBXwaijT4H-55" value="id pelanggan" style="text;html=1;align=center;verticalAlign=middle;whiteSpace=wrap;rounded=0;" vertex="1" parent="e2IvokpkZJgBXwaijT4H-53">
          <mxGeometry x="30" y="25" width="60" height="30" as="geometry" />
        </mxCell>
        <mxCell id="e2IvokpkZJgBXwaijT4H-56" value="" style="group" vertex="1" connectable="0" parent="e2IvokpkZJgBXwaijT4H-80">
          <mxGeometry y="180" width="120" height="80" as="geometry" />
        </mxCell>
        <mxCell id="e2IvokpkZJgBXwaijT4H-57" value="" style="ellipse;whiteSpace=wrap;html=1;" vertex="1" parent="e2IvokpkZJgBXwaijT4H-56">
          <mxGeometry width="120" height="80" as="geometry" />
        </mxCell>
        <mxCell id="e2IvokpkZJgBXwaijT4H-58" value="&lt;u&gt;id pesanan&lt;/u&gt;" style="text;html=1;align=center;verticalAlign=middle;whiteSpace=wrap;rounded=0;" vertex="1" parent="e2IvokpkZJgBXwaijT4H-56">
          <mxGeometry x="30" y="25" width="60" height="30" as="geometry" />
        </mxCell>
        <mxCell id="e2IvokpkZJgBXwaijT4H-47" value="" style="group" vertex="1" connectable="0" parent="e2IvokpkZJgBXwaijT4H-80">
          <mxGeometry x="230" y="30" width="120" height="80" as="geometry" />
        </mxCell>
        <mxCell id="e2IvokpkZJgBXwaijT4H-48" value="" style="ellipse;whiteSpace=wrap;html=1;" vertex="1" parent="e2IvokpkZJgBXwaijT4H-47">
          <mxGeometry width="120" height="80" as="geometry" />
        </mxCell>
        <mxCell id="e2IvokpkZJgBXwaijT4H-49" value="id pegawai" style="text;html=1;align=center;verticalAlign=middle;whiteSpace=wrap;rounded=0;" vertex="1" parent="e2IvokpkZJgBXwaijT4H-47">
          <mxGeometry x="30" y="25" width="60" height="30" as="geometry" />
        </mxCell>
        <mxCell id="e2IvokpkZJgBXwaijT4H-67" value="" style="endArrow=none;html=1;rounded=0;entryX=1;entryY=0.5;entryDx=0;entryDy=0;" edge="1" parent="e2IvokpkZJgBXwaijT4H-80" target="e2IvokpkZJgBXwaijT4H-57">
          <mxGeometry width="50" height="50" relative="1" as="geometry">
            <mxPoint x="180" y="280" as="sourcePoint" />
            <mxPoint x="240" y="160" as="targetPoint" />
          </mxGeometry>
        </mxCell>
        <mxCell id="e2IvokpkZJgBXwaijT4H-68" value="" style="endArrow=none;html=1;rounded=0;" edge="1" parent="e2IvokpkZJgBXwaijT4H-80" target="e2IvokpkZJgBXwaijT4H-54">
          <mxGeometry width="50" height="50" relative="1" as="geometry">
            <mxPoint x="180" y="280" as="sourcePoint" />
            <mxPoint x="240" y="160" as="targetPoint" />
          </mxGeometry>
        </mxCell>
        <mxCell id="e2IvokpkZJgBXwaijT4H-69" value="" style="endArrow=none;html=1;rounded=0;exitX=0.5;exitY=0;exitDx=0;exitDy=0;" edge="1" parent="e2IvokpkZJgBXwaijT4H-80" source="e2IvokpkZJgBXwaijT4H-11" target="e2IvokpkZJgBXwaijT4H-51">
          <mxGeometry width="50" height="50" relative="1" as="geometry">
            <mxPoint x="190" y="210" as="sourcePoint" />
            <mxPoint x="240" y="160" as="targetPoint" />
          </mxGeometry>
        </mxCell>
        <mxCell id="e2IvokpkZJgBXwaijT4H-70" value="" style="endArrow=none;html=1;rounded=0;exitX=0.5;exitY=0;exitDx=0;exitDy=0;" edge="1" parent="e2IvokpkZJgBXwaijT4H-80" source="e2IvokpkZJgBXwaijT4H-11" target="e2IvokpkZJgBXwaijT4H-48">
          <mxGeometry width="50" height="50" relative="1" as="geometry">
            <mxPoint x="180" y="280" as="sourcePoint" />
            <mxPoint x="240" y="160" as="targetPoint" />
          </mxGeometry>
        </mxCell>
        <mxCell id="e2IvokpkZJgBXwaijT4H-71" value="" style="endArrow=none;html=1;rounded=0;exitX=0.5;exitY=0;exitDx=0;exitDy=0;entryX=0.063;entryY=0.781;entryDx=0;entryDy=0;entryPerimeter=0;" edge="1" parent="e2IvokpkZJgBXwaijT4H-80" source="e2IvokpkZJgBXwaijT4H-11" target="e2IvokpkZJgBXwaijT4H-45">
          <mxGeometry width="50" height="50" relative="1" as="geometry">
            <mxPoint x="190" y="210" as="sourcePoint" />
            <mxPoint x="240" y="160" as="targetPoint" />
          </mxGeometry>
        </mxCell>
        <mxCell id="e2IvokpkZJgBXwaijT4H-72" value="" style="endArrow=none;html=1;rounded=0;exitX=0.5;exitY=0;exitDx=0;exitDy=0;entryX=0.01;entryY=0.656;entryDx=0;entryDy=0;entryPerimeter=0;" edge="1" parent="e2IvokpkZJgBXwaijT4H-80" source="e2IvokpkZJgBXwaijT4H-11" target="e2IvokpkZJgBXwaijT4H-40">
          <mxGeometry width="50" height="50" relative="1" as="geometry">
            <mxPoint x="190" y="210" as="sourcePoint" />
            <mxPoint x="240" y="160" as="targetPoint" />
          </mxGeometry>
        </mxCell>
        <mxCell id="e2IvokpkZJgBXwaijT4H-92" value="" style="group" vertex="1" connectable="0" parent="1">
          <mxGeometry x="220" y="780" width="250" height="170" as="geometry" />
        </mxCell>
        <mxCell id="e2IvokpkZJgBXwaijT4H-13" value="" style="group" vertex="1" connectable="0" parent="e2IvokpkZJgBXwaijT4H-92">
          <mxGeometry x="60" y="110" width="120" height="60" as="geometry" />
        </mxCell>
        <mxCell id="e2IvokpkZJgBXwaijT4H-14" value="" style="rounded=0;whiteSpace=wrap;html=1;" vertex="1" parent="e2IvokpkZJgBXwaijT4H-13">
          <mxGeometry width="120" height="60" as="geometry" />
        </mxCell>
        <mxCell id="e2IvokpkZJgBXwaijT4H-15" value="Pelanggan" style="text;html=1;align=center;verticalAlign=middle;whiteSpace=wrap;rounded=0;" vertex="1" parent="e2IvokpkZJgBXwaijT4H-13">
          <mxGeometry x="30" y="15" width="60" height="30" as="geometry" />
        </mxCell>
        <mxCell id="e2IvokpkZJgBXwaijT4H-84" value="" style="group" vertex="1" connectable="0" parent="e2IvokpkZJgBXwaijT4H-92">
          <mxGeometry x="130" width="120" height="80" as="geometry" />
        </mxCell>
        <mxCell id="e2IvokpkZJgBXwaijT4H-85" value="" style="ellipse;whiteSpace=wrap;html=1;" vertex="1" parent="e2IvokpkZJgBXwaijT4H-84">
          <mxGeometry width="120" height="80" as="geometry" />
        </mxCell>
        <mxCell id="e2IvokpkZJgBXwaijT4H-86" value="nama pelanggan" style="text;html=1;align=center;verticalAlign=middle;whiteSpace=wrap;rounded=0;" vertex="1" parent="e2IvokpkZJgBXwaijT4H-84">
          <mxGeometry x="30" y="25" width="60" height="30" as="geometry" />
        </mxCell>
        <mxCell id="e2IvokpkZJgBXwaijT4H-87" value="" style="group" vertex="1" connectable="0" parent="e2IvokpkZJgBXwaijT4H-92">
          <mxGeometry width="120" height="80" as="geometry" />
        </mxCell>
        <mxCell id="e2IvokpkZJgBXwaijT4H-88" value="" style="ellipse;whiteSpace=wrap;html=1;" vertex="1" parent="e2IvokpkZJgBXwaijT4H-87">
          <mxGeometry width="120" height="80" as="geometry" />
        </mxCell>
        <mxCell id="e2IvokpkZJgBXwaijT4H-89" value="&lt;u&gt;id pelanggan&lt;/u&gt;" style="text;html=1;align=center;verticalAlign=middle;whiteSpace=wrap;rounded=0;" vertex="1" parent="e2IvokpkZJgBXwaijT4H-87">
          <mxGeometry x="30" y="25" width="60" height="30" as="geometry" />
        </mxCell>
        <mxCell id="e2IvokpkZJgBXwaijT4H-90" value="" style="endArrow=none;html=1;rounded=0;exitX=0.438;exitY=-0.025;exitDx=0;exitDy=0;exitPerimeter=0;entryX=0.667;entryY=1;entryDx=0;entryDy=0;entryPerimeter=0;" edge="1" parent="e2IvokpkZJgBXwaijT4H-92" source="e2IvokpkZJgBXwaijT4H-14" target="e2IvokpkZJgBXwaijT4H-88">
          <mxGeometry width="50" height="50" relative="1" as="geometry">
            <mxPoint x="230" y="80" as="sourcePoint" />
            <mxPoint x="280" y="30" as="targetPoint" />
          </mxGeometry>
        </mxCell>
        <mxCell id="e2IvokpkZJgBXwaijT4H-91" value="" style="endArrow=none;html=1;rounded=0;exitX=0.583;exitY=0.037;exitDx=0;exitDy=0;exitPerimeter=0;entryX=0.301;entryY=0.949;entryDx=0;entryDy=0;entryPerimeter=0;" edge="1" parent="e2IvokpkZJgBXwaijT4H-92" source="e2IvokpkZJgBXwaijT4H-14" target="e2IvokpkZJgBXwaijT4H-85">
          <mxGeometry width="50" height="50" relative="1" as="geometry">
            <mxPoint x="230" y="80" as="sourcePoint" />
            <mxPoint x="280" y="30" as="targetPoint" />
          </mxGeometry>
        </mxCell>
        <mxCell id="e2IvokpkZJgBXwaijT4H-126" value="1" style="text;html=1;align=center;verticalAlign=middle;whiteSpace=wrap;rounded=0;" vertex="1" parent="e2IvokpkZJgBXwaijT4H-92">
          <mxGeometry x="10" y="100" width="60" height="30" as="geometry" />
        </mxCell>
        <mxCell id="e2IvokpkZJgBXwaijT4H-120" value="" style="group" vertex="1" connectable="0" parent="1">
          <mxGeometry x="210" y="140" width="350" height="280" as="geometry" />
        </mxCell>
        <mxCell id="e2IvokpkZJgBXwaijT4H-16" value="" style="group" vertex="1" connectable="0" parent="e2IvokpkZJgBXwaijT4H-120">
          <mxGeometry x="110" y="220" width="120" height="60" as="geometry" />
        </mxCell>
        <mxCell id="e2IvokpkZJgBXwaijT4H-17" value="" style="rounded=0;whiteSpace=wrap;html=1;" vertex="1" parent="e2IvokpkZJgBXwaijT4H-16">
          <mxGeometry width="120" height="60" as="geometry" />
        </mxCell>
        <mxCell id="e2IvokpkZJgBXwaijT4H-18" value="Pegawai" style="text;html=1;align=center;verticalAlign=middle;whiteSpace=wrap;rounded=0;" vertex="1" parent="e2IvokpkZJgBXwaijT4H-16">
          <mxGeometry x="30" y="15" width="60" height="30" as="geometry" />
        </mxCell>
        <mxCell id="e2IvokpkZJgBXwaijT4H-97" value="" style="group" vertex="1" connectable="0" parent="e2IvokpkZJgBXwaijT4H-120">
          <mxGeometry x="230" y="150" width="120" height="80" as="geometry" />
        </mxCell>
        <mxCell id="e2IvokpkZJgBXwaijT4H-98" value="" style="ellipse;whiteSpace=wrap;html=1;" vertex="1" parent="e2IvokpkZJgBXwaijT4H-97">
          <mxGeometry width="120" height="80" as="geometry" />
        </mxCell>
        <mxCell id="e2IvokpkZJgBXwaijT4H-99" value="password pegawai" style="text;html=1;align=center;verticalAlign=middle;whiteSpace=wrap;rounded=0;" vertex="1" parent="e2IvokpkZJgBXwaijT4H-97">
          <mxGeometry x="30" y="25" width="60" height="30" as="geometry" />
        </mxCell>
        <mxCell id="e2IvokpkZJgBXwaijT4H-100" value="" style="group" vertex="1" connectable="0" parent="e2IvokpkZJgBXwaijT4H-120">
          <mxGeometry x="230" y="60" width="120" height="80" as="geometry" />
        </mxCell>
        <mxCell id="e2IvokpkZJgBXwaijT4H-101" value="" style="ellipse;whiteSpace=wrap;html=1;" vertex="1" parent="e2IvokpkZJgBXwaijT4H-100">
          <mxGeometry width="120" height="80" as="geometry" />
        </mxCell>
        <mxCell id="e2IvokpkZJgBXwaijT4H-102" value="gaji pegawai" style="text;html=1;align=center;verticalAlign=middle;whiteSpace=wrap;rounded=0;" vertex="1" parent="e2IvokpkZJgBXwaijT4H-100">
          <mxGeometry x="30" y="25" width="60" height="30" as="geometry" />
        </mxCell>
        <mxCell id="e2IvokpkZJgBXwaijT4H-103" value="" style="group" vertex="1" connectable="0" parent="e2IvokpkZJgBXwaijT4H-120">
          <mxGeometry x="140" width="120" height="80" as="geometry" />
        </mxCell>
        <mxCell id="e2IvokpkZJgBXwaijT4H-104" value="" style="ellipse;whiteSpace=wrap;html=1;" vertex="1" parent="e2IvokpkZJgBXwaijT4H-103">
          <mxGeometry width="120" height="80" as="geometry" />
        </mxCell>
        <mxCell id="e2IvokpkZJgBXwaijT4H-105" value="jabatan pegawai" style="text;html=1;align=center;verticalAlign=middle;whiteSpace=wrap;rounded=0;" vertex="1" parent="e2IvokpkZJgBXwaijT4H-103">
          <mxGeometry x="30" y="25" width="60" height="30" as="geometry" />
        </mxCell>
        <mxCell id="e2IvokpkZJgBXwaijT4H-106" value="" style="group" vertex="1" connectable="0" parent="e2IvokpkZJgBXwaijT4H-120">
          <mxGeometry x="40" y="60" width="120" height="80" as="geometry" />
        </mxCell>
        <mxCell id="e2IvokpkZJgBXwaijT4H-107" value="" style="ellipse;whiteSpace=wrap;html=1;" vertex="1" parent="e2IvokpkZJgBXwaijT4H-106">
          <mxGeometry width="120" height="80" as="geometry" />
        </mxCell>
        <mxCell id="e2IvokpkZJgBXwaijT4H-108" value="nama pegawai" style="text;html=1;align=center;verticalAlign=middle;whiteSpace=wrap;rounded=0;" vertex="1" parent="e2IvokpkZJgBXwaijT4H-106">
          <mxGeometry x="30" y="25" width="60" height="30" as="geometry" />
        </mxCell>
        <mxCell id="e2IvokpkZJgBXwaijT4H-109" value="" style="group" vertex="1" connectable="0" parent="e2IvokpkZJgBXwaijT4H-120">
          <mxGeometry y="140" width="120" height="80" as="geometry" />
        </mxCell>
        <mxCell id="e2IvokpkZJgBXwaijT4H-110" value="" style="ellipse;whiteSpace=wrap;html=1;" vertex="1" parent="e2IvokpkZJgBXwaijT4H-109">
          <mxGeometry width="120" height="80" as="geometry" />
        </mxCell>
        <mxCell id="e2IvokpkZJgBXwaijT4H-111" value="id pegawai" style="text;html=1;align=center;verticalAlign=middle;whiteSpace=wrap;rounded=0;" vertex="1" parent="e2IvokpkZJgBXwaijT4H-109">
          <mxGeometry x="30" y="25" width="60" height="30" as="geometry" />
        </mxCell>
        <mxCell id="e2IvokpkZJgBXwaijT4H-113" value="" style="endArrow=none;html=1;rounded=0;entryX=1;entryY=0.5;entryDx=0;entryDy=0;exitX=0.452;exitY=0.02;exitDx=0;exitDy=0;exitPerimeter=0;" edge="1" parent="e2IvokpkZJgBXwaijT4H-120" source="e2IvokpkZJgBXwaijT4H-17" target="e2IvokpkZJgBXwaijT4H-110">
          <mxGeometry width="50" height="50" relative="1" as="geometry">
            <mxPoint x="110" y="220" as="sourcePoint" />
            <mxPoint x="160" y="170" as="targetPoint" />
          </mxGeometry>
        </mxCell>
        <mxCell id="e2IvokpkZJgBXwaijT4H-116" value="" style="endArrow=none;html=1;rounded=0;exitX=0.421;exitY=0.07;exitDx=0;exitDy=0;exitPerimeter=0;entryX=0.93;entryY=0.719;entryDx=0;entryDy=0;entryPerimeter=0;" edge="1" parent="e2IvokpkZJgBXwaijT4H-120" source="e2IvokpkZJgBXwaijT4H-17" target="e2IvokpkZJgBXwaijT4H-107">
          <mxGeometry width="50" height="50" relative="1" as="geometry">
            <mxPoint x="120" y="220" as="sourcePoint" />
            <mxPoint x="170" y="170" as="targetPoint" />
          </mxGeometry>
        </mxCell>
        <mxCell id="e2IvokpkZJgBXwaijT4H-117" value="" style="endArrow=none;html=1;rounded=0;exitX=0.421;exitY=0.045;exitDx=0;exitDy=0;exitPerimeter=0;entryX=0.43;entryY=0.969;entryDx=0;entryDy=0;entryPerimeter=0;" edge="1" parent="e2IvokpkZJgBXwaijT4H-120" source="e2IvokpkZJgBXwaijT4H-17" target="e2IvokpkZJgBXwaijT4H-104">
          <mxGeometry width="50" height="50" relative="1" as="geometry">
            <mxPoint x="120" y="220" as="sourcePoint" />
            <mxPoint x="170" y="170" as="targetPoint" />
          </mxGeometry>
        </mxCell>
        <mxCell id="e2IvokpkZJgBXwaijT4H-118" value="" style="endArrow=none;html=1;rounded=0;exitX=0.446;exitY=-0.029;exitDx=0;exitDy=0;exitPerimeter=0;entryX=0.094;entryY=0.765;entryDx=0;entryDy=0;entryPerimeter=0;" edge="1" parent="e2IvokpkZJgBXwaijT4H-120" source="e2IvokpkZJgBXwaijT4H-17" target="e2IvokpkZJgBXwaijT4H-101">
          <mxGeometry width="50" height="50" relative="1" as="geometry">
            <mxPoint x="120" y="220" as="sourcePoint" />
            <mxPoint x="170" y="170" as="targetPoint" />
          </mxGeometry>
        </mxCell>
        <mxCell id="e2IvokpkZJgBXwaijT4H-119" value="" style="endArrow=none;html=1;rounded=0;exitX=0.446;exitY=0.045;exitDx=0;exitDy=0;exitPerimeter=0;entryX=0.026;entryY=0.677;entryDx=0;entryDy=0;entryPerimeter=0;" edge="1" parent="e2IvokpkZJgBXwaijT4H-120" source="e2IvokpkZJgBXwaijT4H-17" target="e2IvokpkZJgBXwaijT4H-98">
          <mxGeometry width="50" height="50" relative="1" as="geometry">
            <mxPoint x="120" y="220" as="sourcePoint" />
            <mxPoint x="170" y="170" as="targetPoint" />
          </mxGeometry>
        </mxCell>
        <mxCell id="e2IvokpkZJgBXwaijT4H-124" value="" style="endArrow=none;html=1;rounded=0;exitX=1;exitY=0.5;exitDx=0;exitDy=0;entryX=0;entryY=0.5;entryDx=0;entryDy=0;" edge="1" parent="1" source="e2IvokpkZJgBXwaijT4H-7" target="e2IvokpkZJgBXwaijT4H-14">
          <mxGeometry width="50" height="50" relative="1" as="geometry">
            <mxPoint x="60" y="820" as="sourcePoint" />
            <mxPoint x="110" y="770" as="targetPoint" />
          </mxGeometry>
        </mxCell>
        <mxCell id="e2IvokpkZJgBXwaijT4H-125" value="" style="endArrow=none;html=1;rounded=0;" edge="1" parent="1">
          <mxGeometry width="50" height="50" relative="1" as="geometry">
            <mxPoint y="880" as="sourcePoint" />
            <mxPoint y="760" as="targetPoint" />
          </mxGeometry>
        </mxCell>
        <mxCell id="e2IvokpkZJgBXwaijT4H-127" value="N" style="text;html=1;align=center;verticalAlign=middle;whiteSpace=wrap;rounded=0;" vertex="1" parent="1">
          <mxGeometry x="-5" y="760" width="60" height="30" as="geometry" />
        </mxCell>
      </root>
    </mxGraphModel>
  </diagram>
</mxfile>
